# xmcd
#
# Track frame offsets: 
#        150
#        14304
#        31290
#        42899
#        58905
#        82822
#        94081
#        110204
#        123514
#        139154
#        155636
#
# Disc length: 2396 seconds
#
# Revision: 2
# Processed by: cddbd v1.5.1PL0 Copyright (c) Steve Scherf et al.
# Submitted via: ExactAudioCopy v0.95a5
#
DISCID=91095a0b
DTITLE=Mighty Imperials - Thunder Chicken
DYEAR=1900
DGENRE=Funk
TTITLE0=Thunder Chicken
TTITLE1=Never Found A Girl
TTITLE2=Jody's Walk
TTITLE3=Duck Hunt
TTITLE4=Joseph's Popcorn
TTITLE5=Chico's Barnyard
TTITLE6=Kick The Blanket
TTITLE7=Funky Belly
TTITLE8=Ride Shank's Mare
TTITLE9=Soul Buster Part 1
TTITLE10=Cold Sweat
EXTD=
EXTT0=
EXTT1=
EXTT2=
EXTT3=
EXTT4=
EXTT5=
EXTT6=
EXTT7=
EXTT8=
EXTT9=
EXTT10=
PLAYORDER=
